<svg width="140" height="140" viewBox="0 0 140 140" fill="none" xmlns="http://www.w3.org/2000/svg">
<mask id="path-1-inside-1_62_13" fill="white">
<path d="M122.5 70C122.5 98.9949 98.9949 122.5 70 122.5C41.0051 122.5 17.5 98.9949 17.5 70C17.5 41.0051 41.0051 17.5 70 17.5C98.9949 17.5 122.5 41.0051 122.5 70ZM32.7052 70C32.7052 90.5974 49.4026 107.295 70 107.295C90.5974 107.295 107.295 90.5974 107.295 70C107.295 49.4026 90.5974 32.7052 70 32.7052C49.4026 32.7052 32.7052 49.4026 32.7052 70Z"/>
</mask>
<path d="M122.5 70C122.5 98.9949 98.9949 122.5 70 122.5C41.0051 122.5 17.5 98.9949 17.5 70C17.5 41.0051 41.0051 17.5 70 17.5C98.9949 17.5 122.5 41.0051 122.5 70ZM32.7052 70C32.7052 90.5974 49.4026 107.295 70 107.295C90.5974 107.295 107.295 90.5974 107.295 70C107.295 49.4026 90.5974 32.7052 70 32.7052C49.4026 32.7052 32.7052 49.4026 32.7052 70Z" fill="#6797F4" stroke="black" stroke-width="0.34" mask="url(#path-1-inside-1_62_13)"/>
<g filter="url(#filter0_f_62_13)">
<path d="M122.5 70C122.5 98.9949 98.9949 122.5 70 122.5C41.0051 122.5 17.5 98.9949 17.5 70C17.5 41.0051 41.0051 17.5 70 17.5C98.9949 17.5 122.5 41.0051 122.5 70ZM32.7052 70C32.7052 90.5974 49.4026 107.295 70 107.295C90.5974 107.295 107.295 90.5974 107.295 70C107.295 49.4026 90.5974 32.7052 70 32.7052C49.4026 32.7052 32.7052 49.4026 32.7052 70Z" fill="#6EFAFA"/>
</g>
<defs>
<filter id="filter0_f_62_13" x="0.414999" y="0.414999" width="139.17" height="139.17" filterUnits="userSpaceOnUse" color-interpolation-filters="sRGB">
<feFlood flood-opacity="0" result="BackgroundImageFix"/>
<feBlend mode="normal" in="SourceGraphic" in2="BackgroundImageFix" result="shape"/>
<feGaussianBlur stdDeviation="8.5425" result="effect1_foregroundBlur_62_13"/>
</filter>
</defs>
</svg>
