<svg width="141" height="112" viewBox="0 0 141 112" fill="none" xmlns="http://www.w3.org/2000/svg">
<path d="M75.1943 69.413C75.1943 71.7457 73.6005 73.6437 71.6374 73.6437H68.4064C66.4433 73.6437 64.8496 71.7457 64.8496 69.413V25.0845C64.8496 22.7445 66.4433 20.8464 68.4064 20.8464H71.6374C73.6005 20.8464 75.1943 22.7445 75.1943 25.0845V69.413Z" fill="#E52A2D"/>
<path d="M75.3101 86.6182C75.3101 88.9509 73.7164 90.8489 71.746 90.8489H68.4064C66.4432 90.8489 64.8496 88.9509 64.8496 86.6182V82.6411C64.8496 80.3084 66.4432 78.4104 68.4064 78.4104H71.746C73.7164 78.4104 75.3101 80.3084 75.3101 82.6411V86.6182Z" fill="#E52A2D"/>
<path d="M70.1315 4.56812C41.8576 4.56812 18.8574 27.5691 18.8574 55.8513C18.8574 84.1262 41.8576 107.127 70.1315 107.127C98.4127 107.127 121.413 84.1262 121.413 55.8513C121.413 27.5691 98.4127 4.56812 70.1315 4.56812ZM70.1315 97.4994C47.1675 97.4994 28.4849 78.8161 28.4849 55.8513C28.4849 32.8793 47.1675 14.196 70.1315 14.196C93.1028 14.196 111.785 32.8793 111.785 55.8513C111.785 78.8161 93.1028 97.4994 70.1315 97.4994Z" fill="#E52A2D"/>
<path d="M30.9397 103.034C30.0704 102.375 9.6275 86.5313 9.6275 55.8513C9.6275 25.1713 30.0704 9.32049 30.9397 8.66125C33.0623 7.06748 33.4897 4.05378 31.896 1.93117C30.3023 -0.198684 27.2887 -0.633323 25.1589 0.960446C24.1375 1.7356 0 20.2016 0 55.8513C0 91.501 24.1375 109.967 25.1589 110.735C26.0282 111.38 27.0351 111.691 28.0348 111.691C29.4981 111.691 30.9398 111.025 31.8887 109.771C33.4825 107.649 33.055 104.635 30.9397 103.034Z" fill="#E52A2D"/>
<path d="M115.103 0.96033C112.98 -0.626194 109.974 -0.191562 108.38 1.9238C106.786 4.04642 107.214 7.06012 109.322 8.66114C110.198 9.32038 130.634 25.1566 130.634 55.8439C130.634 86.524 110.198 102.375 109.322 103.034C107.207 104.628 106.772 107.641 108.366 109.764C109.315 111.025 110.756 111.691 112.22 111.691C113.227 111.691 114.241 111.38 115.103 110.735C116.131 109.967 140.269 91.4937 140.269 55.8439C140.269 20.1942 116.131 1.73548 115.103 0.96033V0.96033Z" fill="#E52A2D"/>
</svg>
