<svg width="91" height="101" viewBox="0 0 91 101" fill="none" xmlns="http://www.w3.org/2000/svg">
<path d="M84.2205 16.807C75.5058 5.30286 56.5479 -2.95587 61.2348 1.47046C73.2312 12.779 80.5622 23.5587 81.0837 26.0073C81.6705 28.6877 78.7294 33.1068 81.9458 34.4977C82.0327 34.5267 82.0834 34.5558 82.1704 34.5847C82.2283 41.7857 82.1703 64.6634 82.1124 80.5504C82.0834 81.2459 81.5329 88.512 75.7014 88.512C69.9278 88.512 69.3192 81.2314 69.2902 80.5504V54.6807C69.2902 49.5009 67.8197 45.5019 64.9583 42.807C63.0458 41.0104 60.8509 40.1629 59.0761 39.7644V5.60716C59.0761 2.50655 56.5479 0 53.4691 0H8.63497C5.52723 0 3.02801 2.50655 3.02801 5.60716V94.5755H0V100.255H62.0969V94.5755H59.0761V44.7051C59.9309 45.0167 60.8508 45.5092 61.6839 46.2844C63.5674 48.0448 64.5165 50.8701 64.5165 54.6807V80.6155V80.717C64.7121 85.0637 67.2909 93.2789 75.7014 93.2789C84.1119 93.2789 86.6907 85.0637 86.8863 80.717V80.6155C86.8863 80.6155 86.9154 68.5464 86.9443 56.4483C86.9443 50.3992 86.9733 44.3501 86.9443 39.7934C86.9443 37.113 86.9443 35.2874 86.9153 34.0124C87.6687 33.5053 88.2482 32.8677 88.6684 32.3317C89.7188 30.89 92.9715 28.3038 84.2205 16.807V16.807ZM53.4111 41.2568H8.68573V8.59901H12.8221V8.56275H49.2457V8.59901H53.4111V41.2568V41.2568Z" fill="#FAB639"/>
</svg>
