<svg width="191" height="76" viewBox="0 0 191 76" fill="none" xmlns="http://www.w3.org/2000/svg">
<path d="M183.678 27.0868C185.004 25.2829 184.967 22.7981 183.569 21.0377L173.579 8.40349C172.225 6.69381 169.921 6.05632 167.878 6.83871L102.666 31.7377L91.7494 23.7906C90.9019 23.1676 89.8732 22.8343 88.8083 22.8343H74.588V18.1255H77.9493C80.7093 18.1255 82.9478 15.887 82.9478 13.1268V4.99136C82.9478 2.23124 80.7093 0 77.9493 0H58.448C55.688 0 53.4568 2.23124 53.4568 4.99136V13.1268C53.4568 15.887 55.688 18.1255 58.448 18.1255H62.2222V22.8343H41.772V21.2261C41.772 19.2194 40.5694 17.401 38.7149 16.6259L15.6423 6.89664C14.389 6.37504 12.9764 6.37506 11.7232 6.91839C10.4772 7.45448 9.49921 8.47592 9.02834 9.75093L0.320863 32.9765C-0.570169 35.3381 0.451254 37.9896 2.68246 39.156L31.7823 54.3475V70.4083C31.7823 73.1684 34.0207 75.3997 36.7807 75.3997H112.837C114.083 75.3997 115.286 74.936 116.206 74.0957L169.349 25.5437L177.868 28.8037C179.969 29.6006 182.345 28.9051 183.678 27.0868V27.0868ZM11.2233 32.3462L16.555 18.1255L31.7823 24.5368V43.0752L11.2233 32.3462V32.3462ZM110.903 65.4169H41.772V32.8171H87.1856L98.9791 41.409C100.341 42.4014 102.123 42.6405 103.695 42.0392L160.04 20.5234L110.903 65.4169V65.4169Z" fill="#E52A2D"/>
<path d="M182.005 37.736C182.005 37.736 173.08 53.3332 173.08 57.7595C173.08 62.1859 177.079 65.7719 182.005 65.7719C186.924 65.7719 190.922 62.1859 190.922 57.7595C190.922 53.3332 182.005 37.736 182.005 37.736Z" fill="#E52A2D"/>
<path d="M112.917 70.3719H38.0771V28.9846H89.0688L102.854 36.2073L144.653 41.6334L112.917 70.3719Z" fill="#E52A2D"/>
<path d="M113.257 71.2413H37.208V28.1082H89.2863L103.123 35.3598L146.638 41.0104L113.257 71.2413ZM38.9538 69.4955H112.576L142.654 42.2565L102.587 37.055L88.8516 29.8613H38.9538V69.4955V69.4955Z" fill="#E52A2D"/>
</svg>
