<svg width="218" height="218" viewBox="0 0 218 218" fill="none" xmlns="http://www.w3.org/2000/svg">
<mask id="path-1-inside-1_62_2" fill="white">
<path d="M161.5 109C161.5 137.995 137.995 161.5 109 161.5C80.0051 161.5 56.5 137.995 56.5 109C56.5 80.0051 80.0051 56.5 109 56.5C137.995 56.5 161.5 80.0051 161.5 109ZM71.7052 109C71.7052 129.597 88.4026 146.295 109 146.295C129.597 146.295 146.295 129.597 146.295 109C146.295 88.4026 129.597 71.7052 109 71.7052C88.4026 71.7052 71.7052 88.4026 71.7052 109Z"/>
</mask>
<path d="M161.5 109C161.5 137.995 137.995 161.5 109 161.5C80.0051 161.5 56.5 137.995 56.5 109C56.5 80.0051 80.0051 56.5 109 56.5C137.995 56.5 161.5 80.0051 161.5 109ZM71.7052 109C71.7052 129.597 88.4026 146.295 109 146.295C129.597 146.295 146.295 129.597 146.295 109C146.295 88.4026 129.597 71.7052 109 71.7052C88.4026 71.7052 71.7052 88.4026 71.7052 109Z" fill="#6797F4" stroke="black" stroke-width="0.34" mask="url(#path-1-inside-1_62_2)"/>
<g filter="url(#filter0_f_62_2)">
<path d="M161.5 109C161.5 137.995 137.995 161.5 109 161.5C80.0051 161.5 56.5 137.995 56.5 109C56.5 80.0051 80.0051 56.5 109 56.5C137.995 56.5 161.5 80.0051 161.5 109ZM71.7052 109C71.7052 129.597 88.4026 146.295 109 146.295C129.597 146.295 146.295 129.597 146.295 109C146.295 88.4026 129.597 71.7052 109 71.7052C88.4026 71.7052 71.7052 88.4026 71.7052 109Z" fill="#6EFAFA"/>
</g>
<defs>
<filter id="filter0_f_62_2" x="39.415" y="39.415" width="139.17" height="139.17" filterUnits="userSpaceOnUse" color-interpolation-filters="sRGB">
<feFlood flood-opacity="0" result="BackgroundImageFix"/>
<feBlend mode="normal" in="SourceGraphic" in2="BackgroundImageFix" result="shape"/>
<feGaussianBlur stdDeviation="8.5425" result="effect1_foregroundBlur_62_2"/>
</filter>
</defs>
</svg>
