<svg width="132" height="132" viewBox="0 0 132 132" fill="none" xmlns="http://www.w3.org/2000/svg">
<g filter="url(#filter0_d_63_7)">
<mask id="path-1-inside-1_63_7" fill="white">
<path d="M118.5 66C118.5 94.9949 94.9949 118.5 66 118.5C37.0051 118.5 13.5 94.9949 13.5 66C13.5 37.0051 37.0051 13.5 66 13.5C94.9949 13.5 118.5 37.0051 118.5 66ZM28.7052 66C28.7052 86.5974 45.4026 103.295 66 103.295C86.5974 103.295 103.295 86.5974 103.295 66C103.295 45.4026 86.5974 28.7052 66 28.7052C45.4026 28.7052 28.7052 45.4026 28.7052 66Z"/>
</mask>
<path d="M118.5 66C118.5 94.9949 94.9949 118.5 66 118.5C37.0051 118.5 13.5 94.9949 13.5 66C13.5 37.0051 37.0051 13.5 66 13.5C94.9949 13.5 118.5 37.0051 118.5 66ZM28.7052 66C28.7052 86.5974 45.4026 103.295 66 103.295C86.5974 103.295 103.295 86.5974 103.295 66C103.295 45.4026 86.5974 28.7052 66 28.7052C45.4026 28.7052 28.7052 45.4026 28.7052 66Z" fill="#2EF09F" stroke="#033C1D" stroke-width="2" mask="url(#path-1-inside-1_63_7)"/>
</g>
<defs>
<filter id="filter0_d_63_7" x="9.5" y="13.5" width="113" height="113" filterUnits="userSpaceOnUse" color-interpolation-filters="sRGB">
<feFlood flood-opacity="0" result="BackgroundImageFix"/>
<feColorMatrix in="SourceAlpha" type="matrix" values="0 0 0 0 0 0 0 0 0 0 0 0 0 0 0 0 0 0 127 0" result="hardAlpha"/>
<feOffset dy="4"/>
<feGaussianBlur stdDeviation="2"/>
<feComposite in2="hardAlpha" operator="out"/>
<feColorMatrix type="matrix" values="0 0 0 0 0 0 0 0 0 0 0 0 0 0 0 0 0 0 0.25 0"/>
<feBlend mode="normal" in2="BackgroundImageFix" result="effect1_dropShadow_63_7"/>
<feBlend mode="normal" in="SourceGraphic" in2="effect1_dropShadow_63_7" result="shape"/>
</filter>
</defs>
</svg>
