<svg width="94" height="116" viewBox="0 0 94 116" fill="none" xmlns="http://www.w3.org/2000/svg">
<path d="M57.4934 33.1287C57.2326 32.9983 57.0298 32.8679 56.9139 32.7157C56.1894 31.8319 55.7331 30.5931 55.4578 29.4195C60.9416 27.2679 64.8534 21.7115 64.8534 15.1843C64.8534 6.79527 58.406 0 50.4375 0C42.4906 0 36.0435 6.79527 36.0435 15.1843C36.0435 21.7115 39.9553 27.2679 45.4391 29.4195C45.1493 30.5931 44.7002 31.8319 43.983 32.7157C42.172 34.918 22.323 34.6428 22.7722 64.765C31.8998 55.2169 43.6281 44.0387 57.4934 33.1287V33.1287Z" fill="#E52A2D"/>
<path d="M23.9893 80.6085C26.9231 102.842 33.9862 113.339 37.7169 114.462C42.0055 115.744 46.7575 114.817 47.9311 112.947C50.6404 108.608 35.0944 90.8883 38.8904 87.6862C40.4986 86.3315 47.6051 86.1577 50.4375 86.1432C53.2772 86.1577 60.3839 86.3315 61.9921 87.6862C65.7953 90.8883 50.2493 108.608 52.9659 112.947C54.1395 114.817 58.877 115.744 63.1801 114.462C66.8239 113.346 73.6985 103.226 76.7194 81.8762C57.0297 78.935 36.739 79.6305 23.9893 80.6085V80.6085Z" fill="#E52A2D"/>
<path d="M32.9131 69.3362C45.5179 68.7567 61.7231 68.8654 77.8197 71.2415C77.9211 69.7202 78.0081 68.1626 78.0733 66.5471C78.747 50.0878 73.5891 42.2277 68.1922 38.1418C54.3051 48.6462 42.3595 59.6939 32.9131 69.3362V69.3362Z" fill="#E52A2D"/>
<path d="M88.8747 23.9718C91.2942 22.4867 92.12 19.2194 90.7002 16.6694C89.2948 14.1266 86.2088 13.2573 83.782 14.7424C74.3646 20.5234 65.5776 26.7753 57.4932 33.1287C59.2318 33.998 63.8026 34.8167 68.1926 38.1418C74.6978 33.2374 81.5943 28.4416 88.8747 23.9718Z" fill="#E52A2D"/>
<path d="M89.4758 73.4076C85.6364 72.5238 81.7317 71.8211 77.8199 71.2416C77.5663 75.0666 77.1824 78.6019 76.7188 81.8763C80.3046 82.4124 83.8471 83.0499 87.3388 83.854C87.701 83.9337 88.0705 83.9699 88.4182 83.9699C90.7508 83.9699 92.8515 82.2458 93.3586 79.7465C93.9599 76.8632 92.2069 74.0234 89.4758 73.4076V73.4076Z" fill="#E52A2D"/>
<path d="M22.9886 69.9447C22.9234 68.8291 22.8582 67.7062 22.8075 66.5471C22.7785 65.9313 22.7785 65.3518 22.7713 64.765C20.895 66.7282 19.1276 68.6263 17.4614 70.4446C13.6293 74.6391 10.4199 78.3483 7.87725 81.4054C3.76258 86.3461 1.4083 89.5119 1.06058 89.9756C-0.649041 92.3083 -0.25062 95.6624 1.95884 97.4735C2.88609 98.2269 3.97998 98.5964 5.05936 98.5964C6.57339 98.5964 8.07295 97.8864 9.06539 96.5317C9.18854 96.3651 13.8682 90.0769 22.2062 80.7534H22.2134C22.7785 80.6954 23.3799 80.6592 23.9884 80.6085C23.9232 80.0797 23.858 79.5363 23.7928 79.0003C23.4523 76.1604 23.177 73.154 22.9886 69.9447V69.9447Z" fill="#E52A2D"/>
</svg>
