<svg width="113" height="102" viewBox="0 0 113 102" fill="none" xmlns="http://www.w3.org/2000/svg">
<path d="M110.555 83.8957L66.7207 7.97432C61.2223 -1.54483 52.2324 -1.54483 46.7413 7.97432L2.90688 83.8957C-2.59144 93.4077 1.91442 101.203 12.9038 101.203H100.565C111.548 101.203 116.046 93.4077 110.555 83.8957ZM61.8816 85.4243C61.8816 87.6556 59.5779 89.4667 56.731 89.4667C53.884 89.4667 51.5804 87.6556 51.5804 85.4243V82.7728C51.5804 80.5415 53.884 78.7377 56.731 78.7377C59.5779 78.7377 61.8816 80.5415 61.8816 82.7728V85.4243ZM62.012 70.6457C62.012 72.8987 59.6431 74.7316 56.731 74.7316C53.8116 74.7316 51.45 72.8987 51.45 70.6457V26.9981C51.45 24.7379 53.8116 22.905 56.731 22.905C59.6431 22.905 62.012 24.7379 62.012 26.9981V70.6457Z" fill="#E52A2D"/>
</svg>
